<svg xmlns="http://www.w3.org/2000/svg" xmlns:xlink="http://www.w3.org/1999/xlink" viewBox="0 0 500 500"><defs><style>.cls-1,.cls-3{fill:none;}.cls-2{fill:#eee0ba;}.cls-3,.cls-5{stroke:#231f20;stroke-miterlimit:10;}.cls-4{clip-path:url(#clip-path);}.cls-5{fill:#fff;}.cls-6{fill:#a51e22;}.cls-7{fill:#99d2ab;}.cls-8{fill:#a51e23;}.cls-10,.cls-11,.cls-9{font-size:18px;}.cls-10,.cls-11,.cls-12,.cls-14,.cls-9{fill:#231f20;font-family:Tinos-Regular, Tinos;}.cls-9{letter-spacing:-0.06em;}.cls-10,.cls-13{letter-spacing:-0.04em;}.cls-12{font-size:10px;}.cls-14{font-size:8px;}</style><clipPath id="clip-path"><circle class="cls-1" cx="250" cy="250" r="225"/></clipPath></defs><title>Artboard 1</title><g id="baseboard"><circle class="cls-2" cx="250" cy="250" r="225"/><circle class="cls-3" cx="250" cy="250" r="225"/></g><g id="lines"><g class="cls-4"><line class="cls-5" x1="242" y1="25" x2="242" y2="475"/><line class="cls-5" x1="226" y1="25" x2="226" y2="475"/><line class="cls-5" x1="258" y1="25" x2="258" y2="475"/><line class="cls-5" x1="274" y1="25" x2="274" y2="475"/></g><g class="cls-4"><line class="cls-5" x1="85.24" y1="96.56" x2="403.44" y2="414.76"/><line class="cls-5" x1="73.93" y1="107.87" x2="392.13" y2="426.07"/><line class="cls-5" x1="96.56" y1="85.24" x2="414.76" y2="403.44"/><line class="cls-5" x1="107.87" y1="73.93" x2="426.07" y2="392.13"/></g><g class="cls-4"><line class="cls-5" x1="25" y1="258" x2="475" y2="258"/><line class="cls-5" x1="25" y1="274" x2="475" y2="274"/><line class="cls-5" x1="25" y1="242" x2="475" y2="242"/><line class="cls-5" x1="25" y1="226" x2="475" y2="226"/></g><g class="cls-4"><line class="cls-5" x1="96.56" y1="414.76" x2="414.76" y2="96.56"/><line class="cls-5" x1="107.87" y1="426.07" x2="426.07" y2="107.87"/><line class="cls-5" x1="85.24" y1="403.44" x2="403.44" y2="85.24"/><line class="cls-5" x1="73.93" y1="392.13" x2="392.13" y2="73.93"/></g></g><g id="dots"><circle class="cls-6" cx="250.05" cy="106.64" r="6.78"/><circle class="cls-7" cx="250.01" cy="129.46" r="6.78"/><circle class="cls-7" cx="323.08" cy="154.14" r="6.78"/><circle class="cls-7" cx="345.76" cy="176.9" r="6.78"/><circle class="cls-7" cx="369.45" cy="233.88" r="6.78"/><circle class="cls-7" cx="370.51" cy="249.86" r="6.78"/><circle class="cls-7" cx="369.61" cy="265.79" r="6.78"/><circle class="cls-7" cx="250.02" cy="370.41" r="6.78"/><circle class="cls-7" cx="176.87" cy="345.8" r="6.78"/><circle class="cls-7" cx="154.13" cy="322.91" r="6.78"/><circle class="cls-7" cx="130.58" cy="265.99" r="6.78"/><circle class="cls-7" cx="129.63" cy="249.73" r="6.78"/><circle class="cls-7" cx="130.74" cy="233.85" r="6.78"/><circle class="cls-7" cx="154.34" cy="176.77" r="6.78"/><circle class="cls-7" cx="164.82" cy="164.93" r="6.78"/><circle class="cls-7" cx="176.95" cy="154.26" r="6.78"/><circle class="cls-6" cx="339.55" cy="137.88" r="6.78"/><circle class="cls-6" cx="362.05" cy="160.46" r="6.78"/><circle class="cls-6" cx="392.48" cy="234.01" r="6.78"/><circle class="cls-6" cx="393.45" cy="249.88" r="6.78"/><circle class="cls-6" cx="392.59" cy="265.79" r="6.78"/><circle class="cls-6" cx="250.05" cy="393.39" r="6.78"/><circle class="cls-6" cx="160.45" cy="362.11" r="6.78"/><circle class="cls-6" cx="137.88" cy="339.31" r="6.78"/><circle class="cls-6" cx="107.46" cy="265.87" r="6.78"/><circle class="cls-6" cx="106.54" cy="249.93" r="6.78"/><circle class="cls-6" cx="107.55" cy="233.96" r="6.78"/><circle class="cls-8" cx="163.98" cy="250.12" r="17.86"/><circle class="cls-8" cx="189.02" cy="310.77" r="17.86"/><circle class="cls-8" cx="250.24" cy="336.01" r="17.86"/><circle class="cls-8" cx="310.75" cy="310.85" r="17.86"/></g><g id="labels"><text class="cls-9" transform="translate(243.43 45.5)">A</text><text class="cls-10" transform="translate(390.06 100.77) rotate(45)">Y</text><text class="cls-11" transform="translate(454.61 246.84) rotate(90)">I</text><text class="cls-11" transform="translate(398.51 390.76) rotate(135)">E</text><text class="cls-11" transform="translate(255.02 454.65) rotate(180)">η</text><text class="cls-11" transform="translate(109.91 399.28) rotate(-135)">O</text><text class="cls-11" transform="translate(45.45 256.05) rotate(-90)">ω</text><text class="cls-11" transform="translate(100.83 109.8) rotate(-45)">U</text></g><g id="secondary_labels" data-name="secondary labels"><text class="cls-12" transform="translate(242.84 79.79)">X<tspan class="cls-13" x="7.22" y="0">Y</tspan></text><text class="cls-14" transform="translate(244.37 73.46)">+</text><text class="cls-14" transform="translate(252.38 72.7)">-</text><text class="cls-12" transform="translate(226.84 79.79)">YX</text><text class="cls-14" transform="translate(228.37 73.46)">+</text><text class="cls-14" transform="translate(236.38 72.7)">-</text><text class="cls-12" transform="translate(258.84 79.79)">YX</text><text class="cls-14" transform="translate(260.37 73.46)">+</text><text class="cls-14" transform="translate(268.38 72.7)">-</text><text class="cls-12" transform="translate(365.32 124.47) rotate(45)">X<tspan class="cls-13" x="7.22" y="0">Y</tspan></text><text class="cls-12" transform="translate(354 113.16) rotate(45)">YX</text><text class="cls-14" transform="matrix(-0.71, -0.71, -0.71, 0.71, 367.83, 118.04)">+</text><text class="cls-14" transform="matrix(-0.71, -0.71, -0.71, 0.71, 362.52, 111.66)">-</text><text class="cls-12" transform="translate(376.63 135.79) rotate(45)">YX</text><text class="cls-14" transform="matrix(-0.71, -0.71, -0.71, 0.71, 379.14, 129.35)">+</text><text class="cls-14" transform="matrix(-0.71, -0.71, -0.71, 0.71, 373.83, 122.97)">-</text><text class="cls-14" transform="matrix(-0.71, -0.71, -0.71, 0.71, 390.45, 140.66)">+</text><text class="cls-14" transform="matrix(-0.71, -0.71, -0.71, 0.71, 385.14, 134.29)">-</text><text class="cls-12" transform="translate(257.13 420.44) rotate(180)">X<tspan class="cls-13" x="7.22" y="0">Y</tspan></text><text class="cls-14" transform="translate(255.6 426.76) rotate(180)">+</text><text class="cls-14" transform="translate(247.59 427.52) rotate(180)">-</text><text class="cls-12" transform="translate(273.13 420.44) rotate(180)">YX</text><text class="cls-14" transform="translate(271.6 426.76) rotate(180)">+</text><text class="cls-14" transform="translate(263.59 427.52) rotate(180)">-</text><text class="cls-12" transform="translate(241.13 420.44) rotate(180)">YX</text><text class="cls-14" transform="translate(239.6 426.76) rotate(180)">+</text><text class="cls-14" transform="translate(231.59 427.52) rotate(180)">-</text><text class="cls-12" transform="translate(134.45 375.48) rotate(-135)">X<tspan class="cls-13" x="7.22" y="0">Y</tspan></text><text class="cls-12" transform="translate(145.77 386.8) rotate(-135)">YX</text><text class="cls-14" transform="matrix(0.71, 0.71, 0.71, -0.71, 131.94, 381.92)">+</text><text class="cls-14" transform="matrix(0.71, 0.71, 0.71, -0.71, 137.25, 388.3)">-</text><text class="cls-12" transform="translate(123.14 364.17) rotate(-135)">YX</text><text class="cls-14" transform="matrix(0.71, 0.71, 0.71, -0.71, 120.63, 370.61)">+</text><text class="cls-14" transform="matrix(0.71, 0.71, 0.71, -0.71, 125.94, 376.98)">-</text><text class="cls-14" transform="matrix(0.71, 0.71, 0.71, -0.71, 109.32, 359.29)">+</text><text class="cls-14" transform="matrix(0.71, 0.71, 0.71, -0.71, 114.63, 365.67)">-</text><text class="cls-12" transform="translate(123.86 133.95) rotate(-45)">X<tspan class="cls-13" x="7.22" y="0">Y</tspan></text><text class="cls-14" transform="translate(120.47 128.4) rotate(-45)">+</text><text class="cls-12" transform="translate(112.55 145.27) rotate(-45)">YX</text><text class="cls-14" transform="translate(109.16 139.71) rotate(-45)">+</text><text class="cls-12" transform="translate(135.18 122.64) rotate(-45)">YX</text><text class="cls-14" transform="translate(131.79 117.08) rotate(-45)">+</text><text class="cls-14" transform="translate(114.29 134.58) rotate(-45)">+</text><text class="cls-14" transform="translate(125.6 123.27) rotate(-45)">+</text><text class="cls-14" transform="translate(136.91 111.96) rotate(-45)">+</text><text class="cls-12" transform="translate(376.28 365.94) rotate(135)">X<tspan class="cls-13" x="7.22" y="0">Y</tspan></text><text class="cls-14" transform="translate(379.67 371.5) rotate(135)">+</text><text class="cls-12" transform="translate(387.59 354.63) rotate(135)">YX</text><text class="cls-14" transform="translate(390.98 360.19) rotate(135)">+</text><text class="cls-12" transform="translate(364.96 377.26) rotate(135)">YX</text><text class="cls-14" transform="translate(368.35 382.82) rotate(135)">+</text><text class="cls-14" transform="translate(385.85 365.32) rotate(135)">+</text><text class="cls-14" transform="translate(374.54 376.63) rotate(135)">+</text><text class="cls-14" transform="translate(363.23 387.94) rotate(135)">+</text><text class="cls-12" transform="translate(420.39 242.74) rotate(90)">X<tspan class="cls-13" x="7.22" y="0">Y</tspan></text><text class="cls-14" transform="translate(427.47 252.29) rotate(90)">-</text><text class="cls-12" transform="translate(420.39 226.74) rotate(90)">YX</text><text class="cls-14" transform="translate(427.47 236.29) rotate(90)">-</text><text class="cls-12" transform="translate(420.39 258.74) rotate(90)">YX</text><text class="cls-14" transform="translate(427.47 268.29) rotate(90)">-</text><text class="cls-14" transform="translate(427.47 229.04) rotate(90)">-</text><text class="cls-14" transform="translate(427.47 245.04) rotate(90)">-</text><text class="cls-14" transform="translate(427.47 261.04) rotate(90)">-</text><text class="cls-12" transform="translate(79.62 256.97) rotate(-90)">X<tspan class="cls-13" x="7.22" y="0">Y</tspan></text><text class="cls-14" transform="translate(72.54 247.43) rotate(-90)">-</text><text class="cls-12" transform="translate(79.62 272.97) rotate(-90)">YX</text><text class="cls-14" transform="translate(72.54 263.43) rotate(-90)">-</text><text class="cls-12" transform="translate(79.62 240.97) rotate(-90)">YX</text><text class="cls-14" transform="translate(72.54 231.43) rotate(-90)">-</text><text class="cls-14" transform="translate(72.54 270.68) rotate(-90)">-</text><text class="cls-14" transform="translate(72.54 254.68) rotate(-90)">-</text><text class="cls-14" transform="translate(72.54 238.68) rotate(-90)">-</text></g></svg>