<svg id="spinner" xmlns="http://www.w3.org/2000/svg" viewBox="0 0 500 500"><defs><style>.cls-1{fill:#d8c391;}.cls-10,.cls-2,.cls-4,.cls-5,.cls-6,.cls-7,.cls-8,.cls-9{fill:#231f20;}.cls-3{fill:#fff;opacity:0;}.cls-4{font-size:18px;}.cls-10,.cls-4,.cls-5,.cls-6,.cls-7,.cls-8,.cls-9{font-family:Tinos-Regular, Tinos;}.cls-5{font-size:10px;}.cls-6{font-size:8px;}.cls-7{font-size:8px;}.cls-8{font-size:10px;}.cls-9{font-size:8px;}.cls-10{font-size:8px;}.cls-11{fill:#808285;}</style></defs><title>Artboard 1</title><path class="cls-1" d="M250,400.64a7.29,7.29,0,0,1,0-14.57h0a7.28,7.28,0,0,1,5.15,2.14h0A7.28,7.28,0,0,1,250,400.64h0m16-.81a7.28,7.28,0,1,1,0-14.56h0a7.25,7.25,0,0,1,5.14,2.13l-.35.35h0l.35-.35A7.28,7.28,0,0,1,266,399.83h0M137.91,332.26h0a7.28,7.28,0,0,1,5.15,2.14h0a7.28,7.28,0,0,1-5.15,12.43h0a7.29,7.29,0,0,1,0-14.57h0m112.2,22.15a18.36,18.36,0,0,1,0-36.71h0a18.27,18.27,0,0,1,13,5.38h0a18.35,18.35,0,0,1-13,31.33h0M292.46,311h0a18.37,18.37,0,0,1,18.36-18.36h0a18.31,18.31,0,0,1,13,5.38h0a18.31,18.31,0,0,1,5.38,13h0a18.37,18.37,0,0,1-18.36,18.36h0A18.37,18.37,0,0,1,292.46,311h0M189.25,329.34a18.36,18.36,0,1,1,0-36.71h0a18.29,18.29,0,0,1,13,5.37h0a18.36,18.36,0,0,1-13,31.34h0m-81.71-70.57h0a7.27,7.27,0,0,1,5.15,2.13l-.36.36h0l.36-.36a7.28,7.28,0,0,1-5.15,12.43h0a7.28,7.28,0,0,1,0-14.56h0m261.9-.12h0a7.27,7.27,0,0,1,5.15,2.13h0a7.28,7.28,0,0,1-5.15,12.43h0a7.28,7.28,0,1,1,0-14.56h0M392.5,273a7.29,7.29,0,0,1,0-14.57h0a7.28,7.28,0,0,1,5.15,2.14h0A7.28,7.28,0,0,1,392.51,273h0m-22.08-30.28h0a7.25,7.25,0,0,1,5.14,2.13h0a7.28,7.28,0,0,1-5.14,12.43h0a7.28,7.28,0,0,1,0-14.56h0m-263.8-.08h0a7.27,7.27,0,0,1,5.15,2.13h0a7.28,7.28,0,0,1-5.15,12.43h0a7.28,7.28,0,1,1,0-14.56h0m287.12,14.43a7.28,7.28,0,1,1,0-14.56h0a7.27,7.27,0,0,1,5.15,2.13l-.35.35h0l.35-.35a7.28,7.28,0,0,1-5.15,12.43h0M164,268.47a18.36,18.36,0,0,1,0-36.71h0a18.27,18.27,0,0,1,13,5.38h0a18.35,18.35,0,0,1-13,31.33h0m-56.43-27.25a7.29,7.29,0,0,1,0-14.57h0a7.27,7.27,0,0,1,5.15,2.13h0a7.29,7.29,0,0,1-5.15,12.44h0m262.1,0a7.29,7.29,0,0,1,0-14.57h0a7.26,7.26,0,0,1,5.14,2.14l-.35.35h0l.35-.35a7.28,7.28,0,0,1-5.15,12.43h0m23-14.61h0a7.27,7.27,0,0,1,5.15,2.13h0a7.29,7.29,0,0,1-5.15,12.44h0a7.29,7.29,0,0,1,0-14.57h0M154.22,184.14a7.29,7.29,0,1,1,7.28-7.29h0a7.28,7.28,0,0,1-7.28,7.29m191.46-14.7h0a7.27,7.27,0,0,1,5.15,2.13h0A7.28,7.28,0,0,1,345.68,184h0a7.28,7.28,0,0,1,0-14.56h0M164.86,172a7.29,7.29,0,1,1,7.28-7.29h0a7.28,7.28,0,0,1-7.28,7.29M362,167.72a7.28,7.28,0,1,1,0-14.56h0a7.27,7.27,0,0,1,5.15,2.13h0A7.28,7.28,0,0,1,362,167.72h0M176.9,161.56a7.28,7.28,0,1,1,7.28-7.28h0a7.28,7.28,0,0,1-7.28,7.28m57-23.67a7.28,7.28,0,1,1,7.29-7.28h0a7.28,7.28,0,0,1-7.29,7.28m16.1-1a7.29,7.29,0,1,1,7.28-7.29h0a7.29,7.29,0,0,1-7.28,7.29m-16.09-22a7.29,7.29,0,1,1,7.29-7.29h0a7.29,7.29,0,0,1-7.29,7.29m16-.88a7.29,7.29,0,1,1,7.28-7.29h0a7.28,7.28,0,0,1-7.28,7.29M250,81.75A168.25,168.25,0,1,0,369,131l.35-.35h0L369,131A167.73,167.73,0,0,0,250,81.75"/><path class="cls-2" d="M250,418.25A168.25,168.25,0,1,1,369,131l.35-.35.36-.36-.36.36L369,131A168.25,168.25,0,0,1,250,418.25m0-337.5h0a169.25,169.25,0,1,0,0,338.5h0A169.25,169.25,0,0,0,369.68,130.32h0A168.77,168.77,0,0,0,250,80.75"/><path class="cls-3" d="M107.54,259.77a6.28,6.28,0,1,0,4.44,1.84,6.27,6.27,0,0,0-4.44-1.84"/><path class="cls-3" d="M107.54,258.77h0a7.28,7.28,0,0,0,0,14.56h0a7.28,7.28,0,0,0,5.15-12.43l-.36.36h0a6.77,6.77,0,1,1-4.79-2,6.78,6.78,0,0,1,4.79,2h0l.36-.36a7.27,7.27,0,0,0-5.15-2.13"/><path class="cls-3" d="M107.54,272.34a6.29,6.29,0,1,1,0-12.57A6.29,6.29,0,0,1,112,270.5a6.33,6.33,0,0,1-4.44,1.84m0-13.07a6.79,6.79,0,1,0,4.79,2h0a6.73,6.73,0,0,0-4.79-2"/><path class="cls-3" d="M106.62,243.64a6.28,6.28,0,1,0,4.44,1.84h0a6.25,6.25,0,0,0-4.44-1.84"/><path class="cls-3" d="M106.62,256.7a6.78,6.78,0,1,1,4.8-11.58h0l.35-.35-.35.35h0a6.79,6.79,0,0,1-4.8,11.58m0-14.06h0a7.28,7.28,0,1,0,0,14.56h0a7.28,7.28,0,0,0,5.15-12.43h0a7.27,7.27,0,0,0-5.15-2.13"/><path class="cls-3" d="M106.62,256.2a6.28,6.28,0,1,1,4.44-10.72h0a6.28,6.28,0,0,1-4.44,10.72m0-13.06a6.78,6.78,0,1,0,4.8,2h0a6.78,6.78,0,0,0-4.8-2"/><path class="cls-3" d="M107.56,227.65a6.28,6.28,0,1,0,4.44,1.84l.35-.35h0l-.35.35a6.25,6.25,0,0,0-4.44-1.84"/><path class="cls-3" d="M107.56,240.72a6.79,6.79,0,1,1,4.79-11.58h0l.36-.36-.36.36h0a6.79,6.79,0,0,1-4.79,11.58m0-14.07h0a7.29,7.29,0,0,0,0,14.57h0a7.29,7.29,0,0,0,5.15-12.44h0a7.27,7.27,0,0,0-5.15-2.13"/><path class="cls-3" d="M107.56,227.15a6.79,6.79,0,1,0,4.79,2h0l-.35.35a6.29,6.29,0,0,1-4.44,10.73,6.29,6.29,0,1,1,0-12.57,6.25,6.25,0,0,1,4.44,1.84l.35-.35a6.73,6.73,0,0,0-4.79-2"/><path class="cls-3" d="M164,232.76a17.36,17.36,0,1,0,12.27,5.08l.36-.35h0l-.36.35A17.29,17.29,0,0,0,164,232.76"/><path class="cls-3" d="M164,268a17.86,17.86,0,1,1,12.63-30.48h0l.35-.35-.35.35h0A17.86,17.86,0,0,1,164,268m0-36.21h0a18.36,18.36,0,1,0,0,36.71h0a18.35,18.35,0,0,0,13-31.33h0a18.27,18.27,0,0,0-13-5.38"/><path class="cls-3" d="M164,232.26a17.86,17.86,0,1,0,12.63,5.23h0l-.36.35A17.36,17.36,0,1,1,164,232.76a17.31,17.31,0,0,1,12.27,5.08l.36-.35A17.8,17.8,0,0,0,164,232.26"/><path class="cls-3" d="M154.22,170.57a6.29,6.29,0,1,0,6.28,6.28h0a6.28,6.28,0,0,0-6.28-6.28"/><path class="cls-3" d="M161.5,176.85h0m-7.28-7.28a7.29,7.29,0,1,0,7.28,7.28H161a6.78,6.78,0,1,1-6.78-6.78,6.79,6.79,0,0,1,6.78,6.78h.5a7.28,7.28,0,0,0-7.28-7.28"/><path class="cls-3" d="M154.22,170.07a6.79,6.79,0,1,0,6.78,6.78h-.5a6.28,6.28,0,1,1-1.84-4.44,6.26,6.26,0,0,1,1.84,4.44h.5a6.79,6.79,0,0,0-6.78-6.78"/><path class="cls-3" d="M164.86,158.47a6.29,6.29,0,1,0,6.28,6.28h0a6.28,6.28,0,0,0-6.28-6.28"/><path class="cls-3" d="M172.14,164.75h0m-7.28-7.28a7.29,7.29,0,1,0,7.28,7.28h-.5a6.79,6.79,0,1,1-6.78-6.78,6.79,6.79,0,0,1,6.78,6.78h.5a7.28,7.28,0,0,0-7.28-7.28"/><path class="cls-3" d="M164.86,158a6.79,6.79,0,1,0,6.78,6.78h-.5a6.28,6.28,0,1,1-1.84-4.44,6.26,6.26,0,0,1,1.84,4.44h.5a6.79,6.79,0,0,0-6.78-6.78"/><path class="cls-3" d="M176.9,148a6.28,6.28,0,1,0,6.28,6.28h0A6.28,6.28,0,0,0,176.9,148"/><path class="cls-3" d="M184.18,154.28h0M176.9,147a7.28,7.28,0,1,0,7.28,7.28h-.5a6.78,6.78,0,1,1-6.78-6.78,6.78,6.78,0,0,1,6.78,6.78h.5A7.28,7.28,0,0,0,176.9,147"/><path class="cls-3" d="M176.9,147.5a6.78,6.78,0,1,0,6.78,6.78h-.5a6.28,6.28,0,1,1-1.84-4.44,6.24,6.24,0,0,1,1.84,4.44h.5a6.77,6.77,0,0,0-6.78-6.78"/><path class="cls-3" d="M189.25,293.63a17.34,17.34,0,1,0,12.28,5.08l.35-.35h0l-.35.35a17.3,17.3,0,0,0-12.28-5.08"/><path class="cls-3" d="M189.25,328.84a17.86,17.86,0,1,1,12.63-30.48h0l.35-.36-.35.36h0a17.86,17.86,0,0,1-12.63,30.48m0-36.21h0a18.36,18.36,0,0,0,0,36.71h0a18.36,18.36,0,0,0,13-31.34h0a18.29,18.29,0,0,0-13-5.37"/><path class="cls-3" d="M189.25,293.13a17.86,17.86,0,1,0,12.63,5.23h0l-.35.35a17.37,17.37,0,1,1-12.28-5.08,17.29,17.29,0,0,1,12.28,5.08l.35-.35a17.8,17.8,0,0,0-12.63-5.23"/><path class="cls-3" d="M137.91,333.26a6.28,6.28,0,1,0,4.44,1.84l.36-.35h0l-.36.35a6.29,6.29,0,0,0-4.44-1.84"/><path class="cls-3" d="M137.91,346.33a6.79,6.79,0,1,1,4.8-11.58h0a6.79,6.79,0,0,1-4.8,11.58m0-14.07h0a7.29,7.29,0,1,0,0,14.57h0a7.28,7.28,0,0,0,5.15-12.43h0a7.28,7.28,0,0,0-5.15-2.14"/><path class="cls-3" d="M137.91,332.76a6.79,6.79,0,1,0,4.8,2h0l-.36.35a6.28,6.28,0,1,1-4.44-1.84,6.27,6.27,0,0,1,4.44,1.84l.36-.35a6.81,6.81,0,0,0-4.8-2"/><path class="cls-3" d="M250.11,318.7a17.36,17.36,0,1,0,12.27,5.08l.36-.35h0l-.36.35a17.29,17.29,0,0,0-12.27-5.08"/><path class="cls-3" d="M250.11,353.91a17.86,17.86,0,1,1,12.63-30.48h0l.35-.35-.35.35h0a17.86,17.86,0,0,1-12.63,30.48m0-36.21h0a18.36,18.36,0,1,0,0,36.71h0a18.35,18.35,0,0,0,13-31.33h0a18.27,18.27,0,0,0-13-5.38"/><path class="cls-3" d="M250.11,318.2a17.86,17.86,0,1,0,12.63,5.23h0l-.36.35a17.36,17.36,0,1,1-12.27-5.08,17.31,17.31,0,0,1,12.27,5.08l.36-.35a17.8,17.8,0,0,0-12.63-5.23"/><path class="cls-3" d="M250,387.07a6.3,6.3,0,1,0,4.44,1.85l.35-.36h0l-.35.36a6.26,6.26,0,0,0-4.44-1.85"/><path class="cls-3" d="M250,400.14a6.79,6.79,0,1,1,4.79-11.58h0A6.79,6.79,0,0,1,250,400.14m0-14.07h0a7.29,7.29,0,0,0,0,14.57h0a7.28,7.28,0,0,0,5.15-12.43h0a7.28,7.28,0,0,0-5.15-2.14"/><path class="cls-3" d="M250,386.57a6.79,6.79,0,1,0,4.79,2h0l-.35.36a6.27,6.27,0,1,1-4.44-1.85,6.23,6.23,0,0,1,4.44,1.85l.35-.36a6.77,6.77,0,0,0-4.79-2"/><path class="cls-3" d="M266,386.27a6.28,6.28,0,1,0,4.45,1.84l.35-.36h0l-.35.36a6.27,6.27,0,0,0-4.45-1.84"/><path class="cls-3" d="M266,385.27h0a7.28,7.28,0,1,0,0,14.56h0a7.28,7.28,0,0,0,5.15-12.43l-.35.35h0a6.8,6.8,0,1,1-4.8-2,6.79,6.79,0,0,1,4.8,2h0l.35-.35a7.25,7.25,0,0,0-5.14-2.13"/><path class="cls-3" d="M266,385.77a6.78,6.78,0,1,0,4.8,2h0l-.35.36a6.29,6.29,0,1,1-4.45-1.84,6.29,6.29,0,0,1,4.45,1.84l.35-.36a6.77,6.77,0,0,0-4.8-2"/><path class="cls-3" d="M310.82,293.65a17.38,17.38,0,1,0,12.27,5.09l.36-.36h0l-.36.36a17.3,17.3,0,0,0-12.27-5.09"/><path class="cls-3" d="M310.82,328.37a17.36,17.36,0,1,1,12.27-29.63l.36-.36.35-.35-.35.35-.36.36a17.36,17.36,0,0,1-12.27,29.63m0-35.72h0A18.37,18.37,0,0,0,292.46,311h0a18.37,18.37,0,0,0,18.36,18.36h0A18.37,18.37,0,0,0,329.18,311h0a18.31,18.31,0,0,0-5.38-13h0a18.31,18.31,0,0,0-13-5.38"/><path class="cls-3" d="M392.51,259.43a6.29,6.29,0,1,0,0,12.57A6.29,6.29,0,0,0,397,261.27l.35-.35h0l-.35.35a6.29,6.29,0,0,0-4.44-1.84"/><path class="cls-3" d="M392.51,272.5a6.79,6.79,0,1,1,4.79-11.58h0l.36-.35-.36.35h0a6.79,6.79,0,0,1-4.79,11.58m0-14.07h0a7.29,7.29,0,0,0,0,14.57h0a7.28,7.28,0,0,0,5.15-12.43h0a7.28,7.28,0,0,0-5.15-2.14"/><path class="cls-3" d="M392.51,258.93a6.79,6.79,0,1,0,4.79,2h0l-.35.35a6.29,6.29,0,1,1-10.73,4.45,6.28,6.28,0,0,1,6.29-6.29,6.29,6.29,0,0,1,4.44,1.84l.35-.35a6.77,6.77,0,0,0-4.79-2"/><path class="cls-3" d="M393.74,243.51a6.28,6.28,0,1,0,4.44,1.84h0a6.25,6.25,0,0,0-4.44-1.84"/><path class="cls-3" d="M393.74,242.51h0a7.28,7.28,0,1,0,0,14.56h0a7.28,7.28,0,0,0,5.15-12.43l-.35.35h0a6.81,6.81,0,1,1-4.8-2,6.8,6.8,0,0,1,4.8,2h0l.35-.35a7.27,7.27,0,0,0-5.15-2.13"/><path class="cls-3" d="M393.74,256.07a6.28,6.28,0,1,1,4.44-10.72h0a6.28,6.28,0,0,1-4.44,10.72m0-13.06a6.78,6.78,0,1,0,4.8,2h0a6.78,6.78,0,0,0-4.8-2"/><path class="cls-3" d="M392.69,227.58a6.23,6.23,0,0,0-4.44,1.84,6.28,6.28,0,1,0,8.88,0l.35-.35h0l-.35.35a6.25,6.25,0,0,0-4.44-1.84"/><path class="cls-3" d="M392.69,240.65a6.79,6.79,0,1,1,4.79-11.58h0l.36-.36-.36.36h0a6.79,6.79,0,0,1-4.79,11.58m0-14.07h0a7.29,7.29,0,0,0,0,14.57h0a7.29,7.29,0,0,0,5.15-12.44h0a7.27,7.27,0,0,0-5.15-2.13"/><path class="cls-3" d="M392.69,227.08a6.79,6.79,0,1,0,4.79,2h0l-.35.35a6.28,6.28,0,1,1-8.88,8.89,6.27,6.27,0,0,1,0-8.89,6.28,6.28,0,0,1,8.88,0l.35-.35a6.73,6.73,0,0,0-4.79-2"/><path class="cls-3" d="M369.44,259.65a6.28,6.28,0,1,0,4.44,1.84l.36-.35h0l-.36.35a6.25,6.25,0,0,0-4.44-1.84"/><path class="cls-3" d="M369.44,272.71a6.78,6.78,0,1,1,4.8-11.57h0l.35-.36-.35.36h0a6.78,6.78,0,0,1-4.8,11.57m0-14.06h0a7.28,7.28,0,1,0,0,14.56h0a7.28,7.28,0,0,0,5.15-12.43h0a7.27,7.27,0,0,0-5.15-2.13"/><path class="cls-3" d="M369.44,259.15a6.79,6.79,0,1,0,4.8,2h0l-.36.35a6.28,6.28,0,1,1-4.44-1.84,6.25,6.25,0,0,1,4.44,1.84l.36-.35a6.77,6.77,0,0,0-4.8-2"/><path class="cls-3" d="M370.42,243.72a6.28,6.28,0,1,0,4.45,1.84l.35-.35h0l-.35.35a6.27,6.27,0,0,0-4.45-1.84"/><path class="cls-3" d="M370.42,256.78a6.78,6.78,0,1,1,4.8-11.57h0a6.78,6.78,0,0,1-4.8,11.57m0-14.06h0a7.28,7.28,0,0,0,0,14.56h0a7.28,7.28,0,0,0,5.14-12.43h0a7.25,7.25,0,0,0-5.14-2.13"/><path class="cls-3" d="M370.42,243.22a6.79,6.79,0,1,0,4.8,2h0l-.35.35a6.29,6.29,0,1,1-4.45-1.84,6.25,6.25,0,0,1,4.45,1.84l.35-.35a6.74,6.74,0,0,0-4.8-2"/><path class="cls-3" d="M369.65,227.62a6.29,6.29,0,1,0,6.29,6.29,6.35,6.35,0,0,0-1.84-4.45h0a6.31,6.31,0,0,0-4.45-1.84"/><path class="cls-3" d="M369.66,226.62h0a7.29,7.29,0,1,0,0,14.57h0a7.28,7.28,0,0,0,5.15-12.43l-.35.35h0a6.77,6.77,0,1,1-4.8-2,6.78,6.78,0,0,1,4.8,2h0l.35-.35a7.26,7.26,0,0,0-5.14-2.14"/><path class="cls-3" d="M369.65,240.19a6.29,6.29,0,0,1,0-12.57,6.31,6.31,0,0,1,4.45,1.84h0a6.29,6.29,0,0,1,0,8.89,6.27,6.27,0,0,1-4.45,1.84m0-13.07a6.79,6.79,0,1,0,4.8,2h0a6.79,6.79,0,0,0-4.8-2"/><path class="cls-3" d="M362,154.16a6.28,6.28,0,1,0,4.44,1.84l.35-.36h0l-.35.36a6.25,6.25,0,0,0-4.44-1.84"/><path class="cls-3" d="M362,167.22a6.78,6.78,0,1,1,4.79-11.58h0l.36-.35-.36.35h0A6.79,6.79,0,0,1,362,167.22m0-14.06h0a7.28,7.28,0,1,0,0,14.56h0a7.28,7.28,0,0,0,5.15-12.43h0a7.27,7.27,0,0,0-5.15-2.13"/><path class="cls-3" d="M362,153.66a6.78,6.78,0,1,0,4.79,2h0l-.35.36a6.28,6.28,0,1,1-4.44-1.84,6.23,6.23,0,0,1,4.44,1.84l.35-.36a6.76,6.76,0,0,0-4.79-2"/><path class="cls-3" d="M345.68,170.44a6.28,6.28,0,1,0,4.44,1.84l.35-.35h0l-.35.35a6.25,6.25,0,0,0-4.44-1.84"/><path class="cls-3" d="M345.68,183.5a6.78,6.78,0,1,1,4.79-11.57h0a6.78,6.78,0,0,1-4.79,11.57m0-14.06h0a7.28,7.28,0,0,0,0,14.56h0a7.28,7.28,0,0,0,5.15-12.43h0a7.27,7.27,0,0,0-5.15-2.13"/><path class="cls-3" d="M345.68,169.94a6.79,6.79,0,1,0,4.79,2h0l-.35.35a6.28,6.28,0,0,1-8.89,8.88,6.28,6.28,0,0,1,4.45-10.72,6.25,6.25,0,0,1,4.44,1.84l.35-.35a6.73,6.73,0,0,0-4.79-2"/><path class="cls-3" d="M233.92,101.22a6.29,6.29,0,1,0,6.29,6.28h0a6.28,6.28,0,0,0-6.29-6.28"/><path class="cls-3" d="M241.21,107.5h0m-7.29-7.28a7.29,7.29,0,1,0,7.29,7.28h-.5a6.79,6.79,0,1,1-6.79-6.78,6.79,6.79,0,0,1,6.79,6.78h.5a7.28,7.28,0,0,0-7.29-7.28"/><path class="cls-3" d="M233.92,100.72a6.79,6.79,0,1,0,6.79,6.78h-.5a6.28,6.28,0,1,1-1.84-4.44,6.31,6.31,0,0,1,1.84,4.44h.5a6.79,6.79,0,0,0-6.79-6.78"/><path class="cls-3" d="M233.91,124.33a6.28,6.28,0,1,0,6.29,6.28h0a6.28,6.28,0,0,0-6.29-6.28"/><path class="cls-3" d="M241.2,130.61h0m-7.29-7.28a7.28,7.28,0,1,0,7.29,7.28h-.5a6.79,6.79,0,1,1-6.79-6.78,6.78,6.78,0,0,1,6.79,6.78h.5a7.28,7.28,0,0,0-7.29-7.28"/><path class="cls-3" d="M233.91,123.83a6.78,6.78,0,1,0,6.79,6.78h-.5a6.28,6.28,0,1,1-1.84-4.44,6.28,6.28,0,0,1,1.84,4.44h.5a6.79,6.79,0,0,0-6.79-6.78"/><path class="cls-3" d="M250,123.27a6.29,6.29,0,1,0,6.28,6.28h0a6.28,6.28,0,0,0-6.28-6.28"/><path class="cls-3" d="M257.29,129.55h0M250,122.27a7.29,7.29,0,1,0,7.28,7.28h-.5a6.78,6.78,0,1,1-6.78-6.78,6.78,6.78,0,0,1,6.78,6.78h.5a7.28,7.28,0,0,0-7.28-7.28"/><path class="cls-3" d="M250,122.77a6.79,6.79,0,1,0,6.78,6.78h-.5a6.28,6.28,0,1,1-1.84-4.44,6.26,6.26,0,0,1,1.84,4.44h.5a6.78,6.78,0,0,0-6.78-6.78"/><path class="cls-3" d="M249.94,100.34a6.29,6.29,0,1,0,6.28,6.28h0a6.28,6.28,0,0,0-6.28-6.28"/><path class="cls-3" d="M257.22,106.62h0m-7.28-7.28a7.29,7.29,0,1,0,7.28,7.28h-.5a6.78,6.78,0,1,1-6.78-6.78,6.78,6.78,0,0,1,6.78,6.78h.5a7.28,7.28,0,0,0-7.28-7.28"/><path class="cls-3" d="M249.94,99.84a6.79,6.79,0,1,0,6.78,6.78h-.5a6.28,6.28,0,1,1-1.84-4.44,6.26,6.26,0,0,1,1.84,4.44h.5a6.78,6.78,0,0,0-6.78-6.78"/><text class="cls-4" transform="translate(211.62 220.89) rotate(-45)">U</text><text class="cls-4" transform="translate(202.19 256.35) rotate(-90)">ω</text><text class="cls-4" transform="translate(243.61 202.29)">Α</text><text class="cls-4" transform="translate(279.22 211.67) rotate(45)">Υ</text><text class="cls-4" transform="translate(297.86 246.98) rotate(90)">Ι</text><text class="cls-4" transform="translate(287.69 279.82) rotate(135)">Ε</text><text class="cls-4" transform="translate(255.23 298.02) rotate(180)">η</text><text class="cls-4" transform="translate(220.99 288.41) rotate(-135)">O</text><text class="cls-5" transform="translate(243.03 94.2)">ZY</text><text class="cls-6" transform="translate(244.56 87.87)">+</text><text class="cls-6" transform="translate(252.58 87.11)">-</text><text class="cls-5" transform="translate(227.03 94.2)">ZY</text><text class="cls-6" transform="translate(228.56 87.87)">+</text><text class="cls-6" transform="translate(236.58 87.11)">-</text><text class="cls-5" transform="translate(259.03 94.2)">YZ</text><text class="cls-6" transform="translate(260.56 87.87)">+</text><text class="cls-6" transform="translate(268.58 87.11)">-</text><text class="cls-5" transform="translate(355.07 134.87) rotate(45)">ZY</text><text class="cls-5" transform="translate(343.76 123.56) rotate(45)">ZY</text><text class="cls-7" transform="matrix(-0.71, -0.71, -0.71, 0.71, 357.64, 128.49)">+</text><text class="cls-7" transform="matrix(-0.71, -0.71, -0.71, 0.71, 352.33, 122.11)">-</text><text class="cls-5" transform="translate(366.39 146.19) rotate(45)">YZ</text><text class="cls-7" transform="matrix(-0.71, -0.71, -0.71, 0.71, 368.95, 139.8)">+</text><text class="cls-7" transform="matrix(-0.71, -0.71, -0.71, 0.71, 363.64, 133.43)">-</text><text class="cls-7" transform="matrix(-0.71, -0.71, -0.71, 0.71, 380.26, 151.12)">+</text><text class="cls-7" transform="matrix(-0.71, -0.71, -0.71, 0.71, 374.96, 144.74)">-</text><text class="cls-8" transform="translate(256.95 406.03) rotate(180)">ZY</text><text class="cls-9" transform="translate(255.41 412.35) rotate(180)">+</text><text class="cls-9" transform="translate(247.4 413.11) rotate(180)">-</text><text class="cls-8" transform="translate(272.95 406.03) rotate(180)">ZY</text><text class="cls-9" transform="translate(271.41 412.35) rotate(180)">+</text><text class="cls-9" transform="translate(263.4 413.11) rotate(180)">-</text><text class="cls-8" transform="translate(240.95 406.03) rotate(180)">YZ</text><text class="cls-9" transform="translate(239.41 412.35) rotate(180)">+</text><text class="cls-9" transform="translate(231.4 413.11) rotate(180)">-</text><text class="cls-8" transform="translate(144.79 365.18) rotate(-135)">ZY</text><text class="cls-8" transform="translate(156.1 376.49) rotate(-135)">ZY</text><text class="cls-10" transform="matrix(0.71, 0.71, 0.71, -0.71, 142.23, 371.56)">+</text><text class="cls-10" transform="matrix(0.71, 0.71, 0.71, -0.71, 147.53, 377.94)">-</text><text class="cls-8" transform="translate(133.48 353.87) rotate(-135)">YZ</text><text class="cls-10" transform="matrix(0.71, 0.71, 0.71, -0.71, 130.91, 360.25)">+</text><text class="cls-10" transform="matrix(0.71, 0.71, 0.71, -0.71, 136.22, 366.63)">-</text><text class="cls-10" transform="matrix(0.71, 0.71, 0.71, -0.71, 119.6, 348.94)">+</text><text class="cls-10" transform="matrix(0.71, 0.71, 0.71, -0.71, 124.91, 355.31)">-</text><text class="cls-8" transform="translate(134.51 144.21) rotate(-45)">ZY</text><text class="cls-10" transform="translate(131.12 138.65) rotate(-45)">+</text><text class="cls-8" transform="translate(123.19 155.53) rotate(-45)">ZY</text><text class="cls-10" transform="translate(119.81 149.97) rotate(-45)">+</text><text class="cls-8" transform="translate(145.82 132.9) rotate(-45)">YZ</text><text class="cls-10" transform="translate(142.43 127.34) rotate(-45)">+</text><text class="cls-10" transform="translate(124.93 144.84) rotate(-45)">+</text><text class="cls-10" transform="translate(136.25 133.53) rotate(-45)">+</text><text class="cls-10" transform="translate(147.56 122.21) rotate(-45)">+</text><text class="cls-8" transform="translate(365.7 355.79) rotate(135)">ZY</text><text class="cls-10" transform="translate(369.09 361.35) rotate(135)">+</text><text class="cls-8" transform="translate(377.01 344.47) rotate(135)">ZY</text><text class="cls-10" transform="translate(380.4 350.03) rotate(135)">+</text><text class="cls-8" transform="translate(354.38 367.1) rotate(135)">YZ</text><text class="cls-10" transform="translate(357.77 372.66) rotate(135)">+</text><text class="cls-10" transform="translate(375.27 355.16) rotate(135)">+</text><text class="cls-10" transform="translate(363.96 366.47) rotate(135)">+</text><text class="cls-10" transform="translate(352.65 377.79) rotate(135)">+</text><text class="cls-8" transform="translate(405.97 242.95) rotate(90)">ZY</text><text class="cls-9" transform="translate(413.05 252.49) rotate(90)">-</text><text class="cls-8" transform="translate(405.97 226.95) rotate(90)">ZY</text><text class="cls-9" transform="translate(413.05 236.49) rotate(90)">-</text><text class="cls-8" transform="translate(405.97 258.95) rotate(90)">YZ</text><text class="cls-9" transform="translate(413.05 268.49) rotate(90)">-</text><text class="cls-9" transform="translate(413.05 229.24) rotate(90)">-</text><text class="cls-9" transform="translate(413.05 245.24) rotate(90)">-</text><text class="cls-9" transform="translate(413.05 261.24) rotate(90)">-</text><text class="cls-8" transform="translate(94.04 256.81) rotate(-90)">ZY</text><text class="cls-9" transform="translate(86.96 247.26) rotate(-90)">-</text><text class="cls-8" transform="translate(94.04 272.81) rotate(-90)">ZY</text><text class="cls-9" transform="translate(86.96 263.26) rotate(-90)">-</text><text class="cls-8" transform="translate(94.04 240.81) rotate(-90)">YZ</text><text class="cls-9" transform="translate(86.96 231.26) rotate(-90)">-</text><text class="cls-9" transform="translate(86.96 270.51) rotate(-90)">-</text><text class="cls-9" transform="translate(86.96 254.51) rotate(-90)">-</text><text class="cls-9" transform="translate(86.96 238.51) rotate(-90)">-</text><line class="cls-2" x1="94.1" y1="185.42" x2="405.9" y2="314.58"/><line class="cls-2" x1="185.42" y1="94.1" x2="314.58" y2="405.9"/><line class="cls-2" x1="94.1" y1="314.58" x2="405.9" y2="185.42"/><line class="cls-2" x1="314.58" y1="94.1" x2="185.42" y2="405.9"/><circle class="cls-11" cx="250" cy="250" r="8.44"/><path class="cls-2" d="M258.44,250h-.5a8,8,0,1,1-2.33-5.61,7.91,7.91,0,0,1,2.33,5.61h1a8.94,8.94,0,1,0-8.94,8.94,8.94,8.94,0,0,0,8.94-8.94Z"/></svg>
